<svg width="174" height="134" viewBox="0 0 174 134" fill="none" xmlns="http://www.w3.org/2000/svg">
<path d="M26.024 99.2438H30.355C30.621 99.2438 30.8869 99.358 31.0769 99.5483C31.2668 99.7386 31.3808 100.005 31.3808 100.272V127.795C31.3808 128.061 31.2668 128.328 31.0769 128.518C30.8869 128.709 30.621 128.823 30.355 128.823H26.024C25.7581 128.823 25.4921 128.709 25.3022 128.518C25.1122 128.328 24.9983 128.061 24.9983 127.795V127.224C24.9983 127.034 24.9603 126.843 24.8463 126.653C24.7323 126.463 24.5803 126.348 24.3904 126.272C24.2004 126.196 24.0105 126.158 23.8205 126.196C23.6306 126.234 23.4406 126.31 23.2886 126.463C21.0472 128.518 18.1598 129.546 14.6646 129.546C12.7271 129.584 10.7895 129.165 9.00393 128.404C7.21834 127.643 5.62271 126.463 4.29301 125.016C1.44367 122.009 0 118.354 0 114.014C0 109.674 1.44367 105.982 4.29301 102.974C5.62271 101.528 7.21834 100.386 9.00393 99.6244C10.7895 98.8631 12.7271 98.4443 14.6646 98.4824C18.1978 98.4824 21.0472 99.5102 23.2886 101.528C23.4406 101.642 23.6306 101.756 23.8205 101.794C24.0105 101.832 24.2004 101.794 24.3904 101.718C24.5803 101.642 24.7323 101.528 24.8463 101.338C24.9603 101.185 24.9983 100.995 24.9983 100.805V100.272C24.9983 100.005 25.1122 99.7386 25.3022 99.5483C25.4921 99.358 25.7581 99.2438 26.024 99.2438ZM9.00393 120.79C10.7895 122.503 13.183 123.493 15.6524 123.493C18.1218 123.493 20.5153 122.541 22.3009 120.79C23.1747 119.915 23.8585 118.849 24.3144 117.669C24.7703 116.489 24.9983 115.27 24.9603 114.014C24.9983 112.758 24.7703 111.54 24.3144 110.36C23.8585 109.18 23.1747 108.152 22.3009 107.238C20.5153 105.525 18.1218 104.535 15.6524 104.535C13.183 104.535 10.7895 105.487 9.00393 107.238C8.13013 108.114 7.44629 109.18 6.99039 110.36C6.5345 111.54 6.30655 112.758 6.34454 114.014C6.30655 115.27 6.5345 116.489 6.99039 117.669C7.44629 118.849 8.13013 119.877 9.00393 120.79Z" fill="white"/>
<path d="M63.1411 87.4426H67.4721C67.624 87.4426 67.738 87.4807 67.852 87.5188C67.966 87.5568 68.0799 87.633 68.1939 87.7472C68.3079 87.8233 68.3839 87.9375 68.4219 88.0898C68.4599 88.2421 68.4978 88.3563 68.4978 88.4705V127.795C68.4978 128.061 68.3839 128.328 68.1939 128.518C68.004 128.709 67.738 128.823 67.4721 128.823H63.1031C62.8371 128.823 62.5712 128.709 62.3812 128.518C62.1913 128.328 62.0773 128.061 62.0773 127.795V127.224C62.0773 127.034 62.0393 126.843 61.9254 126.653C61.8114 126.501 61.6594 126.348 61.4695 126.272C61.2795 126.196 61.0895 126.158 60.8996 126.196C60.7096 126.234 60.5197 126.31 60.3677 126.463C58.1262 128.518 55.2769 129.546 51.7437 129.546C49.8061 129.584 47.8686 129.165 46.083 128.404C44.2974 127.643 42.7018 126.463 41.3721 125.016C38.5227 122.009 37.0791 118.316 37.0791 114.014C37.0791 109.713 38.5227 105.982 41.3721 102.974C42.7018 101.528 44.2974 100.386 46.083 99.6245C47.8686 98.8631 49.8061 98.4443 51.7437 98.4824C55.2769 98.4824 58.1642 99.5102 60.3677 101.528C60.5197 101.642 60.7096 101.756 60.8996 101.794C61.0895 101.832 61.2795 101.794 61.4695 101.718C61.6594 101.642 61.8114 101.528 61.9254 101.338C62.0393 101.185 62.0773 100.995 62.0773 100.805V88.4705C62.0773 88.204 62.1913 87.9375 62.3812 87.7472C62.6092 87.5188 62.8751 87.4426 63.1411 87.4426ZM46.159 120.79C47.9446 122.503 50.338 123.493 52.8074 123.493C55.2769 123.493 57.6703 122.541 59.4559 120.79C60.3297 119.915 61.0136 118.849 61.4695 117.669C61.9254 116.489 62.1533 115.27 62.1153 114.014C62.1533 112.758 61.9254 111.54 61.4695 110.36C61.0136 109.18 60.3297 108.152 59.4559 107.238C57.6703 105.525 55.2769 104.535 52.8074 104.535C50.338 104.535 47.9446 105.487 46.159 107.238C45.2852 108.114 44.6013 109.18 44.1454 110.36C43.6895 111.54 43.4616 112.758 43.4996 114.014C43.4616 115.27 43.6895 116.489 44.1454 117.669C44.6013 118.849 45.2852 119.877 46.159 120.79Z" fill="white"/>
<path d="M82.2887 116.717C82.1367 116.717 81.9468 116.755 81.8328 116.831C81.7188 116.907 81.5669 117.022 81.4529 117.174C81.3769 117.326 81.3009 117.478 81.3009 117.631C81.3009 117.783 81.3009 117.973 81.3769 118.126C81.9088 119.648 82.8966 120.981 84.2263 121.932C85.8979 123.151 87.9874 123.722 90.4188 123.722C93.4581 123.722 95.8516 122.732 97.5232 120.714C97.6752 120.524 97.9031 120.41 98.1311 120.372C98.359 120.334 98.587 120.372 98.8149 120.486L102.31 122.541C102.424 122.618 102.538 122.732 102.614 122.846C102.69 122.96 102.766 123.113 102.766 123.227C102.804 123.379 102.804 123.531 102.766 123.645C102.728 123.798 102.652 123.912 102.576 124.026C99.6887 127.681 95.6236 129.508 90.3429 129.508C85.556 129.508 81.6808 128.023 78.7175 125.092C75.7542 122.161 74.3105 118.43 74.3105 113.938C74.3105 109.522 75.7542 105.83 78.6795 102.86C81.6049 99.8909 85.328 98.4062 89.887 98.4062C94.218 98.4062 97.7512 99.929 100.525 102.936C103.298 105.982 104.666 109.636 104.666 113.976C104.666 114.547 104.628 115.156 104.552 115.727C104.514 115.956 104.4 116.222 104.21 116.374C104.02 116.527 103.792 116.641 103.526 116.641H82.2887V116.717ZM82.2127 111.54H96.9533C97.1053 111.54 97.2573 111.502 97.4092 111.426C97.5612 111.349 97.6752 111.273 97.7512 111.121C97.8271 111.007 97.9031 110.855 97.9411 110.702C97.9791 110.55 97.9791 110.398 97.9411 110.245C97.5232 108.609 96.5734 107.162 95.2437 106.096C93.6861 104.878 91.7485 104.231 89.773 104.269C87.4175 104.269 85.442 104.916 83.8843 106.21C82.6306 107.276 81.6809 108.647 81.225 110.245C81.187 110.398 81.187 110.55 81.187 110.702C81.187 110.855 81.2629 111.007 81.3769 111.121C81.4909 111.235 81.6049 111.349 81.7568 111.426C81.9088 111.502 82.0608 111.54 82.2127 111.54Z" fill="white"/>
<path d="M125.751 98.4824C129.132 98.4824 131.868 99.5483 133.957 101.718C136.047 103.888 137.073 106.857 137.073 110.626V127.757C137.073 128.023 136.959 128.29 136.769 128.48C136.579 128.67 136.313 128.785 136.047 128.785H131.716C131.45 128.785 131.184 128.67 130.994 128.48C130.804 128.29 130.69 128.023 130.69 127.757V111.273C130.69 109.065 130.082 107.39 128.904 106.21C127.727 105.03 126.131 104.421 124.08 104.421C121.838 104.421 120.015 105.106 118.647 106.515C117.279 107.923 116.595 110.055 116.595 112.91V127.719C116.595 127.985 116.481 128.252 116.291 128.442C116.101 128.632 115.836 128.747 115.57 128.747H111.201C110.935 128.747 110.669 128.632 110.479 128.442C110.289 128.252 110.175 127.985 110.175 127.719V100.195C110.175 99.929 110.289 99.6625 110.479 99.4722C110.669 99.2818 110.935 99.1676 111.201 99.1676H115.532C115.798 99.1676 116.063 99.2818 116.253 99.4722C116.443 99.6625 116.557 99.929 116.557 100.195C116.557 100.386 116.595 100.576 116.709 100.766C116.823 100.919 116.975 101.071 117.127 101.147C117.317 101.223 117.507 101.261 117.697 101.223C117.887 101.185 118.077 101.109 118.229 100.995C120.129 99.3199 122.636 98.4824 125.751 98.4824Z" fill="white"/>
<path d="M168.263 99.2438H172.594C172.86 99.2438 173.126 99.358 173.316 99.5483C173.506 99.7386 173.62 100.005 173.62 100.272V127.795C173.62 128.061 173.506 128.328 173.316 128.518C173.126 128.709 172.86 128.823 172.594 128.823H168.263C167.997 128.823 167.731 128.709 167.541 128.518C167.351 128.328 167.238 128.061 167.238 127.795V127.224C167.238 127.034 167.162 126.843 167.086 126.691C166.972 126.539 166.82 126.386 166.63 126.31C166.44 126.234 166.25 126.196 166.06 126.234C165.87 126.272 165.68 126.348 165.528 126.501C163.286 128.556 160.399 129.584 156.904 129.584C154.966 129.622 153.029 129.203 151.243 128.442C149.458 127.681 147.862 126.501 146.532 125.054C143.645 122.047 142.239 118.354 142.239 114.052C142.239 109.713 143.683 106.02 146.532 103.013C147.862 101.566 149.458 100.424 151.243 99.6625C153.029 98.9011 154.966 98.4824 156.904 98.5205C160.437 98.5205 163.286 99.5483 165.528 101.566C165.68 101.68 165.87 101.794 166.06 101.832C166.25 101.87 166.44 101.832 166.63 101.756C166.82 101.68 166.972 101.566 167.048 101.376C167.162 101.223 167.2 101.033 167.2 100.805V100.272C167.2 100.005 167.313 99.7386 167.503 99.5483C167.731 99.358 167.997 99.2438 168.263 99.2438ZM151.281 120.79C153.067 122.503 155.46 123.493 157.93 123.493C160.399 123.493 162.793 122.541 164.578 120.79C165.452 119.915 166.136 118.849 166.592 117.669C167.048 116.489 167.276 115.27 167.238 114.014C167.276 112.758 167.048 111.54 166.592 110.36C166.136 109.18 165.452 108.152 164.578 107.238C162.793 105.525 160.399 104.535 157.93 104.535C155.46 104.535 153.067 105.487 151.281 107.238C150.407 108.114 149.724 109.18 149.268 110.36C148.812 111.54 148.584 112.758 148.622 114.014C148.584 115.27 148.812 116.489 149.268 117.669C149.724 118.849 150.407 119.877 151.281 120.79Z" fill="white"/>
<path d="M96.7637 5.71022C93.6864 0.342598 86.8479 -1.48467 81.4912 1.59885C76.1344 4.68238 74.3108 11.5347 77.3881 16.9023L107.135 68.5227C110.213 73.8903 117.051 75.7176 122.408 72.6341C127.765 69.5506 129.588 62.6983 126.511 57.3307L96.7637 5.71022Z" fill="url(#paint0_linear_172_815)"/>
<path d="M107.515 24.6682C97.5233 19.4148 90.8368 26.6477 87.9115 31.0256C87.4556 31.7108 86.9997 32.4341 86.6198 33.1574C86.4298 33.5381 86.3159 33.8045 86.2399 33.8807L82.4027 40.5807L66.4084 68.3324C65.6866 69.5886 64.6988 70.7307 63.5211 71.6062C62.3434 72.4818 61.0137 73.167 59.608 73.5477C56.7586 74.3091 53.7193 73.9284 51.1359 72.4437C48.5905 70.9591 46.691 68.5227 45.9311 65.6676C45.1713 62.8125 45.5512 59.767 47.0329 57.1784L74.6525 9.2125L76.7041 5.63409C77.6918 3.92102 79.0975 2.51249 80.7691 1.52272C82.4787 0.532943 84.3783 0.0380554 86.3538 0.0380554H86.7717C88.7473 0.0380554 90.6469 0.571012 92.3565 1.52272C94.0661 2.51249 95.4717 3.92102 96.4595 5.63409L107.515 24.6682Z" fill="white"/>
<defs>
<linearGradient id="paint0_linear_172_815" x1="119.207" y1="66.4857" x2="93.932" y2="23.6213" gradientUnits="userSpaceOnUse">
<stop stop-color="white"/>
<stop offset="1" stop-color="white" stop-opacity="0"/>
</linearGradient>
</defs>
</svg>
