<svg width="179" height="28" viewBox="0 0 179 28" fill="none" xmlns="http://www.w3.org/2000/svg">
<g clip-path="url(#clip0_172_731)">
<path d="M14.2729 -0.00527144L0.0273438 13.9995L14.2729 28.0043L28.5184 13.9995L14.2729 -0.00527144Z" fill="#808080"/>
<path d="M45.9091 0L36.549 9.20188L35.7913 9.94679L35.0336 10.7355L31.6907 13.9781L30.933 14.7668L30.1307 15.5117L24.1135 21.471L16.5363 13.9781L24.1135 6.52895L30.1307 12.4883L33.4736 9.20188L24.1135 0L9.85059 13.9781L24.1135 28L33.4736 18.7981L34.2313 18.0532L35.0336 17.2645L38.3319 13.9781L39.1342 13.2332L39.8919 12.4883L45.9091 6.52895L53.5309 13.9781L45.9091 21.471L39.8919 15.5117L36.549 18.7981L45.9091 28L60.1721 13.9781L45.9091 0Z" fill="white"/>
<path d="M70.5127 13.9779C70.5127 8.67586 74.5687 4.90747 80.1848 4.90747C85.8454 4.90747 89.8568 8.67586 89.8568 13.9779C89.8568 19.2799 85.8454 23.0483 80.1848 23.0483C74.5687 23.0921 70.5127 19.2799 70.5127 13.9779ZM80.2293 18.6665C82.9036 18.6665 84.8648 16.7385 84.8648 14.0217C84.8648 11.305 82.9482 9.37695 80.2293 9.37695C77.555 9.37695 75.5939 11.3488 75.5939 14.0217C75.5939 16.6946 77.555 18.6665 80.2293 18.6665Z" fill="white"/>
<path d="M108.042 5.3457V22.654H104.03L97.0326 13.2768V22.654H92.3525V5.3457H96.5868L103.362 14.4161V5.3457H108.042Z" fill="white"/>
<path d="M125.291 17.7025C125.291 20.5069 122.839 22.6102 119.586 22.6102H111.474V5.3457H119.407C122.527 5.3457 124.801 7.2299 124.801 9.77137C124.801 11.305 123.909 12.7072 122.572 13.4959C124.266 14.2847 125.291 15.8183 125.291 17.7025ZM118.561 9.07027H116.109V12.0937H118.561C119.586 12.0937 120.21 11.4803 120.21 10.6039C120.21 9.68373 119.586 9.07027 118.561 9.07027ZM120.522 17.1767C120.522 16.2565 119.853 15.5992 118.783 15.5992H116.154V18.7542H118.783C119.809 18.7542 120.522 18.0969 120.522 17.1767Z" fill="white"/>
<path d="M139.02 18.2721V22.654H127.832V5.3457H132.735V18.2721H139.02Z" fill="white"/>
<path d="M139.777 13.9779C139.777 8.67586 143.833 4.90747 149.449 4.90747C155.11 4.90747 159.121 8.67586 159.121 13.9779C159.121 19.2799 155.11 23.0483 149.449 23.0483C143.833 23.0921 139.777 19.2799 139.777 13.9779ZM149.449 18.6665C152.124 18.6665 154.085 16.7385 154.085 14.0217C154.085 11.305 152.168 9.37695 149.449 9.37695C146.775 9.37695 144.814 11.3488 144.814 14.0217C144.814 16.6946 146.775 18.6665 149.449 18.6665Z" fill="white"/>
<path d="M160.682 14.0217C160.682 8.80731 164.693 4.90747 170.042 4.90747C174.633 4.90747 178.243 7.88713 178.956 12.269H174.053C173.429 10.5162 171.914 9.33314 170.086 9.33314C167.59 9.33314 165.763 11.305 165.763 13.9779C165.763 16.6508 167.59 18.5788 170.086 18.5788C172.047 18.5788 173.563 17.3081 174.053 15.4239H179.001C178.332 19.981 174.722 23.0483 170.042 23.0483C164.693 23.0921 160.682 19.1923 160.682 14.0217Z" fill="white"/>
</g>
<defs>
<clipPath id="clip0_172_731">
<rect width="179" height="28" fill="white"/>
</clipPath>
</defs>
</svg>
