<svg width="87" height="25" viewBox="0 0 87 25" fill="none" xmlns="http://www.w3.org/2000/svg">
<path d="M13.5374 12.4249C13.5374 16.1956 10.5069 19.2523 6.76883 19.2523C3.03073 19.2523 0 16.1949 0 12.4249C0 8.65484 3.0305 5.59717 6.76883 5.59717C10.5072 5.59717 13.5374 8.65415 13.5374 12.4249Z" fill="#999999"/>
<path d="M20.9632 12.4248C20.9632 15.9741 19.4479 18.8526 17.5788 18.8526C15.7096 18.8526 14.1943 15.9741 14.1943 12.4248C14.1943 8.87551 15.7094 5.99707 17.5785 5.99707C19.4477 5.99707 20.9629 8.87458 20.9629 12.4248" fill="#999999"/>
<path d="M23.9995 12.4248C23.9995 15.6041 23.4667 18.183 22.8092 18.183C22.1517 18.183 21.6191 15.6048 21.6191 12.4248C21.6191 9.24475 22.152 6.6665 22.8092 6.6665C23.4665 6.6665 23.9995 9.24452 23.9995 12.4248Z" fill="#999999"/>
<path d="M42.7155 17.6973V7.89726H42.0295L38.0955 13.6933L34.1615 7.89726H33.4755V17.6973H34.1755V9.18527L38.0535 14.8273H38.1095L41.9875 9.18527V17.6973H42.7155ZM45.7138 14.4073H51.6358C51.6498 14.2953 51.6498 14.2533 51.6498 14.1553V14.1273C51.6498 12.0133 50.3758 10.3893 48.3738 10.3893C46.4418 10.3893 44.9858 12.0413 44.9858 14.1133V14.1413C44.9858 16.3673 46.6098 17.8653 48.4858 17.8653C49.8578 17.8653 50.7118 17.3053 51.4398 16.5213L50.9638 16.1013C50.3758 16.7313 49.6198 17.2213 48.5138 17.2213C47.1138 17.2213 45.8398 16.1853 45.7138 14.4073ZM45.7138 13.7913C45.8398 12.2093 46.9318 11.0193 48.3458 11.0193C49.9838 11.0193 50.8098 12.3493 50.9078 13.7913H45.7138ZM60.2876 17.6973V7.47727H59.6016V12.0973C59.0136 11.2013 58.0896 10.3893 56.6616 10.3893C54.9396 10.3893 53.1896 11.8033 53.1896 14.1273V14.1553C53.1896 16.4793 54.9396 17.8653 56.6616 17.8653C58.0756 17.8653 58.9856 17.0393 59.6016 16.1013V17.6973H60.2876ZM59.6436 14.1413C59.6436 15.9613 58.2156 17.2073 56.7316 17.2073C55.2336 17.2073 53.9316 16.0033 53.9316 14.1273V14.0993C53.9316 12.1813 55.1776 11.0473 56.7316 11.0473C58.2156 11.0473 59.6436 12.2793 59.6436 14.1133V14.1413ZM63.7618 8.69527V7.75727H62.9078V8.69527H63.7618ZM63.6778 17.6973V10.5573H62.9918V17.6973H63.6778ZM72.3581 17.6973V10.5573H71.6721V14.6873C71.6721 16.1713 70.5941 17.2353 69.1941 17.2353C67.7521 17.2353 66.9261 16.2693 66.9261 14.7993V10.5573H66.2401V14.9253C66.2401 16.6333 67.2901 17.8653 69.0961 17.8653C70.3981 17.8653 71.1961 17.2073 71.6721 16.3673V17.6973H72.3581ZM85.7601 17.6973V13.3713C85.7601 11.5793 84.7101 10.3893 83.0161 10.3893C81.6721 10.3893 80.9021 11.1313 80.4401 11.9293C80.0481 11.1033 79.2781 10.3893 78.0321 10.3893C76.7581 10.3893 76.1141 11.0893 75.6521 11.8313V10.5573H74.9661V17.6973H75.6521V13.5813C75.6521 12.1393 76.6601 11.0193 77.9341 11.0193C79.2081 11.0193 80.0201 11.9293 80.0201 13.4133V17.6973H80.7061V13.5393C80.7061 11.9433 81.7561 11.0193 82.9601 11.0193C84.2761 11.0193 85.0741 11.9153 85.0741 13.4553V17.6973H85.7601Z" fill="#999999"/>
</svg>
