<svg width="77" height="21" viewBox="0 0 77 21" fill="none" xmlns="http://www.w3.org/2000/svg">
<path d="M17.5475 6.18123C17.5552 6.35723 17.5552 6.52523 17.5552 6.70123C17.563 12.0372 13.6426 18.1973 6.47319 18.1973C4.35865 18.1973 2.2827 17.5653 0.5 16.3813C0.808692 16.4213 1.11738 16.4373 1.42608 16.4373C3.1779 16.4373 4.88343 15.8293 6.26483 14.7013C4.59789 14.6693 3.1316 13.5413 2.62226 11.8932C3.20877 12.0132 3.81072 11.9892 4.3818 11.8212C2.56824 11.4532 1.26401 9.79724 1.2563 7.86923C1.2563 7.85323 1.2563 7.83723 1.2563 7.82123C1.79651 8.13323 2.40617 8.30923 3.02356 8.32523C1.31803 7.14123 0.78554 4.78122 1.81966 2.93322C3.80301 5.46123 6.72015 6.98923 9.85337 7.15723C9.53696 5.75723 9.96913 4.28522 10.9801 3.29322C12.5467 1.76521 15.0162 1.84521 16.498 3.46922C17.37 3.29322 18.2112 2.95722 18.9752 2.48522C18.682 3.42122 18.0723 4.21322 17.262 4.71722C18.0337 4.62122 18.79 4.40522 19.5 4.08522C18.9752 4.90122 18.3115 5.60523 17.5475 6.18123Z" fill="#999999"/>
<path d="M36.8082 6.56927V5.89726H29.2482V6.56927H32.6642V15.6973H33.3922V6.56927H36.8082ZM47.5438 8.55726H46.8018L44.6458 14.8293L42.4898 8.52927H41.9438L39.7878 14.8293L37.6318 8.55726H36.8618L39.4798 15.7533H40.0678L42.2098 9.63527L44.3378 15.7533H44.9258L47.5438 8.55726ZM50.4044 6.69527V5.75727H49.5504V6.69527H50.4044ZM50.3204 15.6973V8.55726H49.6344V15.6973H50.3204ZM56.5647 15.5713V14.9273C56.1587 15.1093 55.8647 15.1793 55.5147 15.1793C54.6887 15.1793 54.0867 14.8153 54.0867 13.7933V9.18727H56.5927V8.55726H54.0867V6.27527H53.4007V8.55726H52.3647V9.18727H53.4007V13.8633C53.4007 15.2213 54.2967 15.8233 55.4027 15.8233C55.8507 15.8233 56.2007 15.7393 56.5647 15.5713ZM62.1702 15.5713V14.9273C61.7642 15.1093 61.4702 15.1793 61.1202 15.1793C60.2942 15.1793 59.6922 14.8153 59.6922 13.7933V9.18727H62.1982V8.55726H59.6922V6.27527H59.0062V8.55726H57.9702V9.18727H59.0062V13.8633C59.0062 15.2213 59.9022 15.8233 61.0082 15.8233C61.4562 15.8233 61.8062 15.7393 62.1702 15.5713ZM64.2666 12.4073H70.1886C70.2026 12.2953 70.2026 12.2533 70.2026 12.1553V12.1273C70.2026 10.0133 68.9286 8.38927 66.9266 8.38927C64.9946 8.38927 63.5386 10.0413 63.5386 12.1133V12.1413C63.5386 14.3673 65.1626 15.8653 67.0386 15.8653C68.4106 15.8653 69.2646 15.3053 69.9926 14.5213L69.5166 14.1013C68.9286 14.7313 68.1726 15.2213 67.0666 15.2213C65.6666 15.2213 64.3926 14.1853 64.2666 12.4073ZM64.2666 11.7913C64.3926 10.2093 65.4846 9.01927 66.8986 9.01927C68.5366 9.01927 69.3626 10.3493 69.4606 11.7913H64.2666ZM76.0543 9.20127V8.44527C74.6403 8.38927 73.4503 9.31327 72.8903 10.5873V8.55726H72.2043V15.6973H72.8903V12.7713C72.8903 10.4473 74.3323 9.20127 75.9843 9.20127H76.0543Z" fill="#999999"/>
</svg>
